<?xml version="1.0" encoding="UTF-8"?>
<svg id="Capa_2" xmlns="http://www.w3.org/2000/svg" viewBox="0 0 972.98 182.62">
<g id="Capa_1-2"><g><g><polygon class="cls-1" points="97.15 113.32 0 141.9 194.31 141.9 97.15 113.32"/><polygon class="cls-1" points="61.3 52.36 97.11 42.08 97.11 48.17 56.11 59.94 31.75 95.53 97.11 76.75 97.11 82.84 26.57 103.09 0 141.9 97.15 113.32 97.15 0 61.3 52.36"/><polygon class="cls-1" points="162.52 95.54 97.11 76.75 97.11 82.84 167.7 103.11 162.52 95.54"/><polygon class="cls-1" points="132.97 52.38 97.11 42.08 97.11 48.17 138.16 59.96 132.97 52.38"/></g><path class="cls-1" d="M424.66,47.26c0-23.06-19.78-33.38-39.38-33.38h-51.54v7.67h3.41c5.72,0,7.19,1.52,7.38,15.43v45.73c22.68-4.98,46.25-9.2,70.55-12.58,6.22-5.67,9.57-13.46,9.57-22.87Zm-43.49,25.54h-14.92V36.98c0-13.62,1.48-15.43,7.38-15.43h7.54c7.51,0,20.23,5.41,20.23,25.71,0,16.95-6.81,25.54-20.23,25.54Z"/><path class="cls-1" d="M489.77,20.33c.84-.09,1.68-.14,2.53-.14,6.14,0,12.27,2.42,17.86,7.07,8.86,7.37,15.44,19.41,18.61,33.46,7.17-.2,14.37-.34,21.61-.4-3.16-14.74-10.25-27.18-20.54-35.71-11.22-9.32-25.72-13.55-40.79-11.92-28.6,2.92-49.03,24.98-52.69,54.7,7.01-.82,14.07-1.57,21.18-2.26,2.61-24.24,15.43-43.12,32.22-44.81Z"/><path class="cls-1" d="M582.25,37.03c.19-14.05,1.57-15.48,7.38-15.48h5.48c8.61,0,21.43,6.94,21.43,26.05,0,5.79-1.07,10.39-2.78,14,7.57,.37,15.09,.83,22.56,1.36,2.38-4.47,3.65-9.63,3.65-15.36,0-23.17-20.5-33.72-39.55-33.72h-50.68v7.67h3.41c5.81,0,7.19,1.43,7.38,15.43v23.3c7.28,0,14.52,.08,21.72,.23v-23.48Z"/><path class="cls-1" d="M770.69,79.47h-10.62c3.56,.72,7.1,1.45,10.62,2.2v-2.2Z"/><path class="cls-1" d="M706.92,20.34c7.88-.63,16.49,1.29,24.28,5.4,8.97,5.26,18.97,18.56,18.97,28.54v3.41h7.67V7.71h-7.67v3.41c0,5.48-.93,6.49-1.12,6.64-.38,.3-1.69,.45-5.83-.54-5.98-1.4-24.19-5.66-36.89-4.53-32.02,2.94-55.22,23.28-60.82,50.96,7.74,.62,15.41,1.32,23.03,2.09,3.06-24.4,18.41-43.56,38.38-45.4Z"/><path class="cls-1" d="M801.28,37.03c.19-13.96,1.66-15.48,7.38-15.48h3.41v-7.67h-43.3v7.67h3.41c5.9,0,7.38,1.82,7.38,15.43v46.64c7.34,1.65,14.58,3.37,21.72,5.18V37.03Z"/><path class="cls-1" d="M856.27,92.97h36.46c2.66,6.65,7.71,18.47,13,30.74,10.55,4.55,20.71,9.3,30.45,14.24-4.29-9.59-7.93-18.61-9.99-23.72l-.89-2.2c-4.56-10.82-38.9-95.2-39.25-96.05l-.86-2.12h-6.16l-34.12,87.31c2.43,.77,4.84,1.55,7.24,2.33,.78-2.03,2.25-5.8,4.12-10.55Zm18.38-47.09c3.51,9.12,9.45,24.57,15.11,39.42h-30.49c4.52-11.62,10.36-26.59,15.38-39.42Z"/><path class="cls-1" d="M240.01,105.73c.47-1.26,2.16-5.6,4.44-11.41h35.24l1.35,3.52c.17,.45,.34,.88,.51,1.32,6.73-2.06,13.56-4.05,20.5-5.96-10.67-28.49-28.28-76.67-28.52-77.3l-.86-2.25h-6.3l-36.05,95.58c-1.44,3.68-2.93,6.88-4.5,9.64,3.96-1.61,7.98-3.19,12.04-4.74,.44-2.79,1.15-5.65,2.16-8.41Zm22.22-60.25c3.42,8.88,9.05,26.87,14.46,41.02h-29.17c4.36-11.22,9.91-28.75,14.71-41.02Z"/><g><path class="cls-1" d="M337.15,132.91h-3.41v7.67h58.05c19.03,0,41.26-8.83,41.26-33.72,0-17.37-11.29-27.72-24.89-31.9,2.6-1.38,4.92-2.99,6.93-4.83-24.31,3.39-47.87,7.6-70.55,12.58v34.72c-.19,13.96-1.66,15.48-7.38,15.48Zm29.1-52.45h21.94c8.61,0,21.43,7.03,21.43,26.39,0,20.56-13.47,26.05-21.43,26.05h-14.56c-5.9,0-7.38-1.82-7.38-15.43v-37.01Z"/><path class="cls-1" d="M436,83.32c1.51,19.43,9.36,35.95,22.09,46.52,9.66,8.02,21.73,12.27,34.51,12.27,2.09,0,4.19-.11,6.31-.34,33.51-3.42,55.83-33.04,53.06-70.44h0c-.29-3.79-.83-7.46-1.59-11-7.24,.06-14.45,.2-21.61,.4,.91,4.02,1.55,8.19,1.87,12.47h0c2.46,31.4-12.1,58.72-32.42,60.93-7.05,.72-14.15-1.75-20.54-7.11-11.32-9.49-18.92-26.6-20.35-45.77-.43-5.54-.33-10.94,.22-16.11-7.11,.68-14.18,1.44-21.18,2.26-.63,5.1-.78,10.43-.37,15.92Z"/><path class="cls-1" d="M553.15,132.91h-3.41v7.67h43.3v-7.67h-3.41c-5.81,0-7.19-1.41-7.38-15.26v-36.33h11.38c8.51,.68,21.29,30.23,30.63,51.83,7.48,17.28,14.54,33.61,20.79,40.72,4.76,5.64,12.56,8.75,21.96,8.75h21.73v-7.67h-3.41c-10.8,0-19.28-10.22-23.37-16.3-3.27-4.87-7.83-14.35-13.12-25.32-12.07-25.03-22.48-45.57-32.26-54.78,9.13-2.98,15.89-8.38,19.74-15.59-7.47-.53-14.99-.98-22.56-1.36-4.37,9.22-12.93,12.05-18.64,12.05h-12.86v-13.14c-7.2-.15-14.44-.22-21.72-.23v57.32c-.19,13.9-1.57,15.31-7.38,15.31Z"/><path class="cls-1" d="M644.51,83.35c3.25,37.28,33.42,61.32,73.31,58.43,3.29-.2,7.67-1.07,12.32-1.98,7.18-1.41,19.2-3.78,21.87-1.58,.1,.08,.22,.18,.22,.67v3.41h7.67v-39.72c0-14.23,1.8-15.43,7.38-15.43h3.41v-5.47c-3.52-.75-7.06-1.49-10.62-2.2h-32.68v7.67h3.41c5.81,0,7.19,1.43,7.38,15.43v24.92c-6.53,3.6-14.1,5.99-21.05,6.63-24.05,2.21-45.96-21.53-48.87-52.91-.46-5.31-.34-10.5,.29-15.47-7.61-.78-15.29-1.48-23.03-2.09-1.26,6.23-1.64,12.84-1.01,19.7Z"/><path class="cls-1" d="M772.18,132.91h-3.41v7.67h43.3v-7.67h-3.41c-5.72,0-7.19-1.52-7.38-15.46v-28.66c-7.14-1.81-14.38-3.53-21.72-5.18v33.86c0,13.62-1.48,15.43-7.38,15.43Z"/><path class="cls-1" d="M818.95,132.96l-2.83,.49v7.14h43.3v-7.67h-3.41c-1.98,0-3.46-.78-4.63-2.46-3.4-4.86-3.27-15.9,.28-25.65,.1-.28,.27-.72,.49-1.28-2.4-.79-4.81-1.57-7.24-2.33l-2.87,7.35c-5.99,15.37-12.9,22.67-23.09,24.43Z"/><path class="cls-1" d="M913.23,141.01c4.9,11.3,9.13,21.05,9.77,22.77,3.1,8.37,2.54,10.17,2.3,10.52,0,0-.49,.65-3.9,.65h-3.41v7.67h54.99l-.63-8.3-14.29-.5h-.11c-.19-.02-4.67-.6-16.15-23.87-1.94-3.94-3.83-8.01-5.61-11.98-9.74-4.94-19.89-9.7-30.45-14.24,2.52,5.83,5.09,11.76,7.49,17.29Z"/><path class="cls-1" d="M290.32,122.23c3.07,8.29,2.42,9.85,2.26,10.07,0,0-.56,.56-3.65,.56h-3.5v7.82h43.68v-7.82h-3.5c-7.91,0-12.03-10.14-16.01-19.94l-.11-.27c-1.11-2.62-3.89-9.94-7.45-19.44-6.94,1.91-13.77,3.9-20.5,5.96,4,10.46,7.42,19.38,8.78,23.06Z"/><path class="cls-1" d="M207.96,132.91l-2.9,.5v7.28h42.51v-7.82h-3.5c-1.87,0-3.26-.74-4.36-2.32-2.32-3.32-2.92-9.64-1.86-16.4-4.06,1.55-8.08,3.13-12.04,4.74-4.81,8.42-10.43,12.75-17.85,14.03Z"/></g></g></g></svg>